<svg aria-label="Diesel For Successful Living Logo" viewBox="0 0 361 199" height="199" width="361" xmlns="http://www.w3.org/2000/svg">
    <path stroke-width="1" stroke-miterlimit="10" stroke="rgba(0,0,0,0)" fill="#e4002b" transform="translate(-2455.5 -1404.5)" d="M2816,1603H2456V1405h360v198Zm-30.537-36.121a6.651,6.651,0,0,0-4.483,1.683,5.693,5.693,0,0,0-1.906,4.265,6.638,6.638,0,0,0,1.678,4.457,5.63,5.63,0,0,0,4.223,1.912,7.214,7.214,0,0,0,4.614-1.416l.991,1.278h1.412v-6.307h-6.2v2.3h2.272c.09,0,.117.025.117.105,0,.768-1.15,1.612-2.2,1.612a2.842,2.842,0,0,1-1.8-.554,2.189,2.189,0,0,1-.781-1.807v-2.6a2.291,2.291,0,0,1,2.438-2.589c1.21,0,2.5.807,2.5,2.008l3.385-.36a4.873,4.873,0,0,0-3.741-3.758A13.665,13.665,0,0,0,2785.463,1566.88Zm-189.8,0a6.676,6.676,0,0,0-4.465,1.719,5.771,5.771,0,0,0-1.92,4.29,6.162,6.162,0,0,0,1.823,4.394,6.525,6.525,0,0,0,4.588,1.914,10.963,10.963,0,0,0,2.527-.272,5.388,5.388,0,0,0,3.888-3.96l-3.305-.435c-.258,1.957-1.137,2.358-2.377,2.358-.124,0-.254,0-.4-.013-1.521-.115-2.393-1.443-2.393-3.643v-.285a4.578,4.578,0,0,1,.7-2.713,2.2,2.2,0,0,1,1.736-.933c.055,0,.112-.005.167-.005a2.079,2.079,0,0,1,2.281,1.99l3.371-.356a4.728,4.728,0,0,0-3.666-3.738A10.119,10.119,0,0,0,2595.659,1566.879Zm-17.643,0a6.67,6.67,0,0,0-4.462,1.719,5.772,5.772,0,0,0-1.92,4.29,6.152,6.152,0,0,0,1.818,4.392,6.528,6.528,0,0,0,4.593,1.916,10.953,10.953,0,0,0,2.525-.272,5.377,5.377,0,0,0,3.887-3.96l-3.3-.435c-.258,1.957-1.139,2.358-2.382,2.358-.124,0-.255,0-.4-.013-1.521-.115-2.393-1.443-2.393-3.643v-.285a4.575,4.575,0,0,1,.7-2.713,2.207,2.207,0,0,1,1.739-.933c.055,0,.112-.005.167-.005a2.084,2.084,0,0,1,2.285,1.99l3.368-.356a4.735,4.735,0,0,0-3.668-3.738A10.14,10.14,0,0,0,2578.017,1566.879Zm63.126,8.224-1.914,1.464c1.476,2.372,4.871,2.628,6.261,2.628.18,0,.356,0,.523-.012,1.638-.075,3.812-.511,4.862-2.158a3.281,3.281,0,0,0,.268-3.028,4.718,4.718,0,0,0-3.979-2.675c-.753-.116-1.113-.16-1.461-.2-.3-.036-.581-.071-1.093-.148-.291-.037-.7-.229-.7-.536,0-.286.168-.419.477-.565a4.346,4.346,0,0,1,1.518-.25,5.02,5.02,0,0,1,2.935.89l1.976-1.494a8.066,8.066,0,0,0-5.6-2.13,10.238,10.238,0,0,0-1.308.086c-.483.07-2.935.5-3.738,2.044a3.446,3.446,0,0,0-.058,3.047,5.033,5.033,0,0,0,3.424,2.452,14.255,14.255,0,0,0,2.593.651c.211.033.409.065.636.113a.521.521,0,0,1,.409.313.614.614,0,0,1-.055.581,1.214,1.214,0,0,1-.657.419,5.249,5.249,0,0,1-1.388.172,5.023,5.023,0,0,1-2.973-.888c-.189-.127-.454-.351-.688-.549-.1-.083-.19-.161-.269-.225Zm-16.544,0-1.915,1.464c1.478,2.372,4.871,2.628,6.261,2.628.18,0,.356,0,.523-.012,1.638-.075,3.811-.511,4.862-2.158a3.291,3.291,0,0,0,.267-3.028,4.716,4.716,0,0,0-3.975-2.675c-.755-.115-1.114-.159-1.461-.2h-.006c-.3-.036-.58-.071-1.091-.148-.292-.038-.7-.229-.7-.536s.216-.441.478-.565a4.344,4.344,0,0,1,1.518-.25,5.037,5.037,0,0,1,2.938.89l1.972-1.494a8.067,8.067,0,0,0-5.6-2.13,10.221,10.221,0,0,0-1.307.086c-.482.07-2.927.5-3.737,2.044a3.476,3.476,0,0,0-.059,3.047,5.031,5.031,0,0,0,3.423,2.452,14.258,14.258,0,0,0,2.593.651c.213.034.412.066.638.114a.522.522,0,0,1,.407.307.635.635,0,0,1-.047.587,1.246,1.246,0,0,1-.664.419,5.216,5.216,0,0,1-1.386.172,5.026,5.026,0,0,1-2.976-.888c-.178-.12-.433-.336-.638-.51-.117-.1-.225-.191-.317-.264Zm-85.145,0-1.915,1.464c1.482,2.372,4.874,2.628,6.263,2.628.181,0,.357,0,.524-.012,1.639-.076,3.812-.511,4.858-2.158a3.269,3.269,0,0,0,.268-3.028,4.714,4.714,0,0,0-3.975-2.675c-.753-.115-1.112-.159-1.458-.2-.3-.036-.58-.071-1.095-.149-.293-.038-.707-.23-.707-.536s.218-.44.48-.565a4.342,4.342,0,0,1,1.517-.25,5.019,5.019,0,0,1,2.933.89l1.975-1.494a8.067,8.067,0,0,0-5.6-2.13,10.239,10.239,0,0,0-1.308.086c-.483.07-2.931.5-3.737,2.044a3.444,3.444,0,0,0-.056,3.047,5.018,5.018,0,0,0,3.424,2.452,14.181,14.181,0,0,0,2.593.651c.211.033.41.065.637.113a.518.518,0,0,1,.406.311.626.626,0,0,1-.054.583,1.232,1.232,0,0,1-.656.419,5.241,5.241,0,0,1-1.388.172,5.015,5.015,0,0,1-2.973-.888c-.189-.125-.457-.352-.672-.535-.093-.079-.2-.169-.286-.239Zm132.974-8.06v8.149c0,2.769,1.674,4,5.427,4h.769a6.782,6.782,0,0,0,4.225-1.03,3.533,3.533,0,0,0,1.205-2.973v-8.149h-3.076v7.665c0,1.039-.8,1.589-2.306,1.589-1.453,0-2.253-.553-2.253-1.556v-7.7Zm-117.552,0v8.149c0,2.769,1.674,4,5.427,4h.772a6.782,6.782,0,0,0,4.224-1.03,3.532,3.532,0,0,0,1.206-2.973v-8.149h-3.083v7.665c0,1.039-.794,1.589-2.3,1.589-1.456,0-2.257-.553-2.257-1.556v-7.7Zm-52.808-.164a7.45,7.45,0,0,0-5.379,1.925,5.507,5.507,0,0,0-1.526,4.1,5.9,5.9,0,0,0,1.71,4.285,7.329,7.329,0,0,0,5.2,2.005,6.979,6.979,0,0,0,5.014-1.932,5.946,5.946,0,0,0,1.712-4.324,5.707,5.707,0,0,0-1.962-4.415A7.225,7.225,0,0,0,2502.069,1566.879Zm12.19.164v11.991l3.978,0,0-4.505h2.06l1.944,4.5,4.318,0-2.317-4.69a3.786,3.786,0,0,0,2.452-3.722,3.5,3.5,0,0,0-3.868-3.578Zm247.706,0v11.991h3.063v-6.88l0,0,5.737,6.878h3.3v-11.991h-3.09v6.488l-5.414-6.488Zm-154.855,0v11.988h11.12v-2.5h-7.144v-2.076h4.289v-2.525h-4.289v-2.26h6.65v-2.626Zm49.366,0v11.988h3.963v-4.574h4.307v-2.528h-4.307v-2.261h6.65v-2.625Zm-176.484,0v11.988h3.96v-4.574h4.3v-2.528h-4.3v-2.261h6.653v-2.625Zm272.69,0v11.988h3.979v-11.988Zm-27.055,0v11.988h3.979v-11.988Zm8.635-.014h0l4.663,12h4.106l4.749-11.987h-3.473l-3.035,7.71-2.988-7.71-4.021-.014Zm-23.516.014v11.987h9.747V1576.4h-5.754v-9.359Zm-21.355,0v11.987h9.746V1576.4h-5.754v-9.359Zm-59.559-51.027a65.343,65.343,0,0,0,1.048,12.124,36.862,36.862,0,0,0,3.975,11.374c4.436,7.782,11.74,11.729,21.709,11.729,8.875,0,16.258-3.163,21.352-9.147a29.17,29.17,0,0,0,5.459-9.968,39.613,39.613,0,0,0,1.843-12.262,37.5,37.5,0,0,0-7.381-22.671c-4.347-6.02-9.9-10.707-15.265-15.24-4.014-3.39-7.8-6.59-10.58-9.984-3.1-3.795-4.55-7.349-4.55-11.188,0-6.42,3.005-10.409,7.844-10.409,8.324,0,8.324,10.722,8.324,17.128h18.571a66.042,66.042,0,0,0-1.7-14.071,33.426,33.426,0,0,0-4.668-10.98,21.312,21.312,0,0,0-8.09-7.138,26.593,26.593,0,0,0-11.961-2.546c-8.327,0-15.261,3.148-20.052,9.1a29.516,29.516,0,0,0-5.119,9.872,40.978,40.978,0,0,0-1.727,12.081,37.037,37.037,0,0,0,7.3,22.6c4.3,5.892,9.818,10.395,15.15,14.749,4.061,3.316,7.9,6.448,10.714,9.86,3.153,3.817,4.622,7.487,4.622,11.55a13.33,13.33,0,0,1-2.061,7.261,8.451,8.451,0,0,1-2.868,2.707,8.752,8.752,0,0,1-4.353,1.072,7.428,7.428,0,0,1-5.184-1.85,10.092,10.092,0,0,1-2.662-4.551c-1.121-3.6-1.121-8-1.121-11.207ZM2546.014,1435V1549h20.813V1435Zm203.743,0V1549H2792V1531.39h-21.428V1435Zm-57.469,0V1549h48.185V1531.39H2713.1v-31.064h19.372v-18.573H2713.1v-29.14h26.255V1435Zm-114.3,0V1549h48.183V1531.39H2598.8v-31.064h19.372v-18.573H2598.8v-29.14h26.254V1435Zm-98,0v113.99h21.452c7.843,0,14.068-1.4,19.03-4.267a25.543,25.543,0,0,0,10.491-11.861c2.178-4.689,3.637-10.592,4.459-18.046a216.294,216.294,0,0,0,.929-22.82,191.166,191.166,0,0,0-1.072-23.494c-.924-7.469-2.551-13.348-4.976-17.971-5.556-10.6-15.794-15.531-32.222-15.531Zm306.025.009a6,6,0,1,0,5.977,5.968A6,6,0,0,0,2786.016,1435.011Zm-284.05,141.857a2.27,2.27,0,0,1-2.109-2.129,13.965,13.965,0,0,1,.018-3.259,2.288,2.288,0,0,1,2.091-2.178,2.338,2.338,0,0,1,2.108,2.178,20.536,20.536,0,0,1-.075,3.231A2.233,2.233,0,0,1,2501.966,1576.868Zm19.127-4.862h-2.854V1569.5h2.854a1.255,1.255,0,0,1,0,2.511Zm-20.287-40.619h0v-78.775c3.656.045,5.955.451,7.689,1.357,1.928,1.007,3.237,2.726,4.118,5.41,1.831,5.573,1.963,15.981,1.963,32.462,0,16.577-.132,27.049-1.963,32.682-.882,2.715-2.19,4.457-4.118,5.481C2506.753,1530.93,2504.454,1531.344,2500.806,1531.388Zm285.21-85.54a4.823,4.823,0,1,1,3.423-1.409A4.821,4.821,0,0,1,2786.016,1445.848Zm-2.229-8.2v6.714l.989,0,0-3.1h1.167l1.916,3.093,1.139,0-2.029-3.091c.962-.024,2.109-.364,2.109-1.85a1.656,1.656,0,0,0-.738-1.446,3.232,3.232,0,0,0-1.634-.324Zm2.732,2.8c-.1,0-.207,0-.341,0-.107,0-.212,0-.314,0h-1.085v-2.023h1.729c.769,0,1.589.076,1.589.984a.88.88,0,0,1-.492.878A2.587,2.587,0,0,1,2786.518,1440.444Z" data-name="Sottrazione 2" id="Sottrazione_2"></path>
</svg>